<!DOCTYPE svg PUBLIC "-//W3C//DTD SVG 20010904//EN" "http://www.w3.org/TR/2001/REC-SVG-20010904/DTD/svg10.dtd">
<svg version="1.0" xmlns="http://www.w3.org/2000/svg" width="98px" height="73px" viewBox="0 0 980 730" preserveAspectRatio="xMidYMid meet">
<g id="layer101" fill="#01aaff" stroke="none">
 <path d="M0 365 l0 -365 490 0 490 0 0 365 0 365 -490 0 -490 0 0 -365z"/>
 </g>
<g id="layer102" fill="#3bbeff" stroke="none">
 <path d="M0 365 l0 -365 490 0 490 0 0 365 0 365 -490 0 -490 0 0 -365z m678 143 c17 -17 17 -229 0 -246 -7 -7 -31 -12 -55 -12 -24 0 -43 -4 -43 -9 0 -26 -34 -41 -90 -41 -56 0 -90 15 -90 41 0 5 -19 9 -43 9 -24 0 -48 5 -55 12 -17 17 -17 229 0 246 17 17 359 17 376 0z m-318 -278 c0 -5 -7 -10 -15 -10 -8 0 -15 5 -15 10 0 6 7 10 15 10 8 0 15 -4 15 -10z"/>
 <path d="M310 385 l0 -125 49 0 c41 0 51 -4 56 -20 6 -17 15 -20 75 -20 60 0 69 3 75 20 5 16 15 20 56 20 l49 0 0 125 0 125 -180 0 -180 0 0 -125z m214 71 c100 -42 38 -190 -65 -154 -67 23 -71 125 -5 154 38 16 31 16 70 0z"/>
 <path d="M480 410 c0 -13 -7 -20 -20 -20 -11 0 -20 -4 -20 -10 0 -5 9 -10 20 -10 13 0 20 -7 20 -20 0 -11 5 -20 10 -20 6 0 10 9 10 20 0 13 7 20 20 20 11 0 20 5 20 10 0 6 -9 10 -20 10 -13 0 -20 7 -20 20 0 11 -4 20 -10 20 -5 0 -10 -9 -10 -20z"/>
 </g>
<g id="layer103" fill="#5bc8ff" stroke="none">
 <path d="M0 365 l0 -365 490 0 490 0 0 365 0 365 -490 0 -490 0 0 -365z m684 139 c8 -20 8 -218 0 -238 -4 -12 -20 -16 -55 -16 -27 0 -49 -4 -49 -9 0 -26 -34 -41 -90 -41 -56 0 -90 15 -90 41 0 5 -22 9 -49 9 -35 0 -51 4 -55 16 -8 20 -8 218 0 238 5 14 32 16 194 16 162 0 189 -2 194 -16z m-314 -274 c0 -5 -11 -10 -25 -10 -14 0 -25 5 -25 10 0 6 11 10 25 10 14 0 25 -4 25 -10z"/>
 <path d="M317 504 c-4 -4 -7 -58 -7 -121 l0 -113 48 0 c39 0 49 -4 57 -22 9 -21 17 -23 75 -23 58 0 66 2 75 23 8 18 18 22 58 22 l48 0 -3 118 -3 117 -171 3 c-93 1 -173 -1 -177 -4z m238 -64 c28 -28 27 -93 -3 -122 -28 -29 -91 -31 -121 -4 -43 39 -33 116 19 143 31 17 79 9 105 -17z"/>
 <path d="M480 410 c0 -13 -7 -20 -20 -20 -11 0 -20 -4 -20 -10 0 -5 9 -10 20 -10 13 0 20 -7 20 -20 0 -11 5 -20 10 -20 6 0 10 9 10 20 0 13 7 20 20 20 11 0 20 5 20 10 0 6 -9 10 -20 10 -13 0 -20 7 -20 20 0 11 -4 20 -10 20 -5 0 -10 -9 -10 -20z"/>
 </g>
<g id="layer104" fill="#7fd4ff" stroke="none">
 <path d="M0 365 l0 -365 490 0 490 0 0 365 0 365 -490 0 -490 0 0 -365z m685 20 l0 -130 -50 -3 c-41 -2 -52 -7 -60 -25 -9 -20 -17 -22 -85 -22 -68 0 -76 2 -85 22 -8 18 -19 23 -60 25 l-50 3 -3 119 c-1 66 0 126 2 133 4 11 45 13 198 11 l193 -3 0 -130z m-315 -155 c0 -5 -11 -10 -25 -10 -14 0 -25 5 -25 10 0 6 11 10 25 10 14 0 25 -4 25 -10z"/>
 <path d="M317 504 c-4 -4 -7 -58 -7 -121 l0 -113 48 0 c42 0 50 -3 60 -25 11 -23 17 -25 72 -25 55 0 61 2 72 25 10 22 18 25 60 25 l49 0 -3 118 -3 117 -171 3 c-93 1 -173 -1 -177 -4z m234 -63 c20 -20 29 -39 29 -61 0 -43 -47 -90 -90 -90 -43 0 -90 47 -90 90 0 22 9 41 29 61 20 20 39 29 61 29 22 0 41 -9 61 -29z"/>
 <path d="M480 410 c0 -13 -7 -20 -20 -20 -11 0 -20 -4 -20 -10 0 -5 9 -10 20 -10 13 0 20 -7 20 -20 0 -11 5 -20 10 -20 6 0 10 9 10 20 0 13 7 20 20 20 11 0 20 5 20 10 0 6 -9 10 -20 10 -13 0 -20 7 -20 20 0 11 -4 20 -10 20 -5 0 -10 -9 -10 -20z"/>
 </g>
<g id="layer105" fill="#beeaff" stroke="none">
 <path d="M0 365 l0 -365 490 0 490 0 0 365 0 365 -490 0 -490 0 0 -365z m673 152 c15 -11 17 -28 15 -137 l-3 -125 -47 -3 c-36 -2 -50 -8 -62 -28 -15 -22 -23 -24 -86 -24 -63 0 -71 2 -86 24 -12 20 -26 26 -62 28 l-47 3 -3 125 c-2 109 0 126 15 137 24 18 342 18 366 0z m-303 -287 c0 -5 -11 -10 -25 -10 -14 0 -25 5 -25 10 0 6 11 10 25 10 14 0 25 -4 25 -10z"/>
 <path d="M310 385 l0 -115 48 0 c42 0 50 -3 60 -25 11 -23 17 -25 72 -25 55 0 61 2 72 25 10 22 18 25 60 25 l48 0 0 115 0 115 -180 0 -180 0 0 -115z m241 56 c20 -20 29 -39 29 -61 0 -43 -47 -90 -90 -90 -43 0 -90 47 -90 90 0 22 9 41 29 61 20 20 39 29 61 29 22 0 41 -9 61 -29z"/>
 <path d="M480 410 c0 -13 -7 -20 -20 -20 -11 0 -20 -4 -20 -10 0 -5 9 -10 20 -10 13 0 20 -7 20 -20 0 -11 5 -20 10 -20 6 0 10 9 10 20 0 13 7 20 20 20 11 0 20 5 20 10 0 6 -9 10 -20 10 -13 0 -20 7 -20 20 0 11 -4 20 -10 20 -5 0 -10 -9 -10 -20z"/>
 </g>
<g id="layer106" fill="#ffffff" stroke="none">
 <path d="M0 365 l0 -365 490 0 490 0 0 365 0 365 -490 0 -490 0 0 -365z m678 153 c8 -8 12 -53 12 -135 0 -136 -3 -143 -72 -143 -22 0 -37 -7 -46 -20 -10 -17 -23 -20 -82 -20 -59 0 -72 3 -82 20 -13 21 -38 27 -38 10 0 -5 -11 -10 -25 -10 -15 0 -25 6 -25 14 0 8 -7 16 -15 20 -12 4 -15 28 -15 129 0 82 4 127 12 135 17 17 359 17 376 0z"/>
 <path d="M310 385 l0 -115 50 0 c45 0 52 -3 60 -25 9 -23 15 -25 70 -25 55 0 61 2 70 25 8 22 15 25 60 25 l50 0 0 115 0 115 -180 0 -180 0 0 -115z m242 58 c58 -55 18 -153 -62 -153 -48 0 -90 42 -90 89 0 81 94 120 152 64z"/>
 <path d="M480 410 c0 -13 -7 -20 -20 -20 -11 0 -20 -4 -20 -10 0 -5 9 -10 20 -10 13 0 20 -7 20 -20 0 -11 5 -20 10 -20 6 0 10 9 10 20 0 13 7 20 20 20 11 0 20 5 20 10 0 6 -9 10 -20 10 -13 0 -20 7 -20 20 0 11 -4 20 -10 20 -5 0 -10 -9 -10 -20z"/>
 </g>

</svg>